HIERARCHY
ROOT root
{
	OFFSET 0.000000 0.000000 0.000000
	CHANNELS 6 Xposition Yposition Zposition Zrotation Yrotation Xrotation
	JOINT lhip
	{
		OFFSET 0.058581 -0.082280 -0.017664
		CHANNELS 3 Zrotation Yrotation Xrotation
		JOINT lknee
		{
			OFFSET 0.043451 -0.386469 0.008037
			CHANNELS 3 Zrotation Yrotation Xrotation
			JOINT lankle
			{
				OFFSET -0.014790 -0.426874 -0.037428
				CHANNELS 3 Zrotation Yrotation Xrotation
				JOINT ltoe
				{
					OFFSET 0.041054 -0.060286 0.122042
					CHANNELS 3 Zrotation Yrotation Xrotation
					End Site
					{
						OFFSET 0.000000 0.000000 0.000000
					}
				}
			}
		}
	}
	JOINT rhip
	{
		OFFSET -0.060310 -0.090513 -0.013543
		CHANNELS 3 Zrotation Yrotation Xrotation
		JOINT rknee
		{
			OFFSET -0.043257 -0.383688 -0.004843
			CHANNELS 3 Zrotation Yrotation Xrotation
			JOINT rankle
			{
				OFFSET 0.019056 -0.420046 -0.034562
				CHANNELS 3 Zrotation Yrotation Xrotation
				JOINT rtoe
				{
					OFFSET -0.034840 -0.062106 0.130323
					CHANNELS 3 Zrotation Yrotation Xrotation
					End Site
					{
						OFFSET 0.000000 0.000000 0.000000
					}
				}
			}
		}
	}
	JOINT lowerback
	{
		OFFSET 0.004439 0.124404 -0.038385
		CHANNELS 3 Zrotation Yrotation Xrotation
		JOINT upperback
		{
			OFFSET 0.004488 0.137956 0.026820
			CHANNELS 3 Zrotation Yrotation Xrotation
			JOINT chest
			{
				OFFSET -0.002265 0.056032 0.002855
				CHANNELS 3 Zrotation Yrotation Xrotation
				JOINT lowerneck
				{
					OFFSET -0.013390 0.211636 -0.033468
					CHANNELS 3 Zrotation Yrotation Xrotation
					JOINT upperneck
					{
						OFFSET 0.010113 0.088937 0.050410
						CHANNELS 3 Zrotation Yrotation Xrotation
						End Site
						{
							OFFSET 0.000000 0.000000 0.000000
						}
					}
				}
				JOINT lclavicle
				{
					OFFSET 0.071702 0.114000 -0.018898
					CHANNELS 3 Zrotation Yrotation Xrotation
					JOINT lshoulder
					{
						OFFSET 0.122921 0.045205 -0.019046
						CHANNELS 3 Zrotation Yrotation Xrotation
						JOINT lelbow
						{
							OFFSET 0.255332 -0.015649 -0.022946
							CHANNELS 3 Zrotation Yrotation Xrotation
							JOINT lwrist
							{
								OFFSET 0.265709 0.012698 -0.007375
								CHANNELS 3 Zrotation Yrotation Xrotation
								End Site
								{
									OFFSET 0.000000 0.000000 0.000000
								}
							}
						}
					}
				}
				JOINT rclavicle
				{
					OFFSET -0.082954 0.112472 -0.023707
					CHANNELS 3 Zrotation Yrotation Xrotation
					JOINT rshoulder
					{
						OFFSET -0.113228 0.046853 -0.008472
						CHANNELS 3 Zrotation Yrotation Xrotation
						JOINT relbow
						{
							OFFSET -0.260127 -0.014369 -0.031269
							CHANNELS 3 Zrotation Yrotation Xrotation
							JOINT rwrist
							{
								OFFSET -0.269108 0.006794 -0.006027
								CHANNELS 3 Zrotation Yrotation Xrotation
								End Site
								{
									OFFSET 0.000000 0.000000 0.000000
								}
							}
						}
					}
				}
			}
		}
	}
}
MOTION
Frames: 16
Frame Time: 0.033333
0.047969 0.254247 1.010385 87.421730 1.317067 88.132707 0.662144 3.219565 2.235426 -3.050134 -6.361320 4.191019 2.450918 8.797076 -12.418985 0.000000 -0.000000 0.000000 3.450013 -1.675143 -4.588217 -0.496847 -0.867599 14.078152 2.605734 -6.454062 -9.827959 0.000000 -0.000000 0.000000 0.144539 -0.967326 10.481408 1.236379 -1.065729 -3.540260 -0.935541 -1.018553 -1.619498 4.304895 -15.162558 -6.477152 2.490451 -21.225293 5.046875 -27.330713 2.218319 3.488868 -50.989331 -5.505099 8.134040 6.021206 -30.401412 6.843422 -5.504693 -7.380743 -5.292802 24.808741 2.732134 -1.915001 60.105178 0.563192 11.161305 -14.838865 23.162052 -6.955361 5.224775 2.225499 -6.198477 
0.048492 0.254176 1.010090 87.415877 1.310742 87.980092 0.718527 3.219391 2.457552 -3.127101 -6.136524 4.235785 2.971162 8.562489 -12.280674 0.000000 -0.000000 0.000000 3.401229 -1.643984 -4.375985 -0.524243 -1.168107 14.153570 2.508034 -6.188681 -9.943854 0.000000 -0.000000 0.000000 -0.042983 -0.893404 10.420811 1.401868 -1.200589 -3.068898 -0.958864 -0.931745 -1.597487 4.224664 -15.177695 -5.692483 2.906231 -21.205741 4.278540 -27.472743 2.277147 3.735919 -51.319584 -5.427756 8.291752 6.244285 -31.130060 6.965207 -5.540513 -7.384694 -5.334777 24.742307 3.341357 -1.292356 60.415008 0.322196 11.338933 -15.248790 23.698235 -6.424760 5.429984 2.161805 -6.124804 
0.048474 0.253915 1.009532 87.352037 1.324551 88.003603 0.759567 3.150485 2.383111 -3.203606 -5.994551 4.372770 3.017779 8.551483 -12.322969 0.000000 -0.000000 0.000000 3.441140 -1.615087 -4.474050 -0.551547 -1.156586 14.300165 2.432833 -6.178406 -10.012220 0.000000 -0.000000 0.000000 -0.110086 -0.819172 10.234417 1.452776 -1.213146 -2.786816 -1.014470 -0.932069 -1.464298 4.231218 -15.161463 -5.365851 2.838561 -21.196448 4.447129 -27.525199 2.461189 3.876267 -51.586330 -5.345380 8.527513 6.236127 -31.830216 7.400228 -5.733612 -7.614006 -5.382744 24.870300 3.309052 -1.046088 60.516407 0.652827 11.268238 -15.250750 23.708350 -6.772338 5.467879 2.419252 -6.655349 
0.048864 0.253317 1.008965 87.437547 1.374635 87.929149 0.828932 2.893484 2.401370 -3.257088 -5.913250 4.558338 3.119458 8.572662 -12.522226 0.000000 -0.000000 0.000000 3.506006 -1.452106 -4.439211 -0.598040 -1.413697 14.472274 2.320504 -6.149061 -10.099403 0.000000 -0.000000 0.000000 -0.115701 -0.815886 10.080345 1.464575 -1.160738 -2.418890 -1.069617 -0.873184 -1.125931 4.009468 -15.306200 -4.487354 3.186635 -21.274246 3.806051 -27.579308 2.836620 3.844266 -52.045450 -5.251522 8.779534 6.083872 -32.665923 8.088423 -6.090521 -8.061871 -5.389868 24.793248 3.120419 -1.074480 61.012435 0.490958 11.490962 -15.244232 24.228486 -6.117978 5.475437 2.383586 -6.618356 
0.049288 0.253236 1.008779 87.545451 1.396355 87.853955 0.837442 2.854152 2.445564 -3.232236 -6.025348 4.695294 3.089486 8.567195 -12.587229 0.000000 -0.000000 0.000000 3.503087 -1.323392 -4.277160 -0.556876 -1.544051 14.408196 2.293059 -6.263213 -10.159861 0.000000 -0.000000 0.000000 -0.085275 -0.889408 10.108936 1.451442 -1.119216 -2.397750 -1.072882 -0.849992 -1.044875 3.885771 -15.335280 -4.254258 3.080927 -21.223843 4.014142 -27.555931 2.948423 3.893799 -52.222578 -5.184983 8.854717 5.942135 -32.748904 8.310975 -6.101099 -8.092371 -5.412944 24.757558 3.075980 -1.049443 61.148596 0.323635 11.571826 -15.208837 24.416702 -5.870514 5.389950 2.332619 -6.598464 
0.049714 0.253106 1.008571 87.709979 1.396621 87.854639 0.759441 2.847196 2.267948 -3.132331 -6.111244 5.048410 3.059196 8.577457 -12.780410 0.000000 -0.000000 0.000000 3.505709 -1.400257 -4.273873 -0.554734 -1.541117 14.486718 2.304654 -6.282061 -10.217565 0.000000 -0.000000 0.000000 -0.029431 -0.833094 10.097188 1.441073 -1.049238 -2.497397 -1.130450 -0.883869 -0.943173 3.767575 -15.350866 -4.165015 2.410742 -21.280953 5.002346 -27.557853 3.285949 4.016737 -52.428523 -5.055206 9.003490 5.596457 -32.645243 8.820979 -6.191210 -8.155658 -5.370018 24.970424 2.809480 -0.983575 61.126472 0.455846 11.405851 -15.003401 23.509862 -6.200835 5.406237 2.519791 -6.811723 
0.050354 0.252827 1.008316 87.832598 1.396266 87.833779 0.749442 2.783898 2.252937 -3.146854 -6.109865 5.150417 3.118245 8.639532 -12.863730 0.000000 -0.000000 0.000000 3.504377 -1.484822 -4.185505 -0.543965 -1.540199 14.467168 2.308627 -6.298722 -10.176277 0.000000 -0.000000 0.000000 0.013636 -0.793146 10.015643 1.453526 -0.999902 -2.358410 -1.157345 -0.826823 -0.810225 3.561855 -15.435479 -3.895307 2.237715 -21.372742 5.019560 -27.683283 3.556659 3.966283 -52.553654 -4.933109 8.976546 5.404406 -32.379370 9.124902 -6.443514 -8.127746 -5.275622 25.000058 2.665882 -0.976057 61.247113 0.401171 11.417510 -14.838984 23.267287 -6.055600 5.345656 2.626867 -6.770709 
0.051068 0.252626 1.008075 87.981945 1.372925 87.876415 0.713732 2.725466 2.212390 -3.156542 -6.014390 5.138354 3.140928 8.681019 -12.855976 0.000000 -0.000000 0.000000 3.464329 -1.562912 -4.194541 -0.506284 -1.607553 14.469518 2.283121 -6.307465 -10.228519 0.000000 -0.000000 0.000000 0.067812 -0.730284 9.910854 1.424898 -0.952907 -2.295003 -1.207646 -0.820192 -0.737090 3.426686 -15.534933 -3.711317 2.072117 -21.481715 5.204863 -27.696040 3.784088 3.918061 -52.763932 -4.761207 8.958474 5.384704 -31.707140 9.185440 -6.618661 -8.103752 -5.201216 25.077097 2.612720 -0.891616 61.294798 0.338655 11.443475 -14.578207 22.786772 -5.927230 5.305827 2.760961 -6.771021 
0.051676 0.252349 1.007915 88.085843 1.359031 87.907209 0.704314 2.702301 2.217690 -3.131803 -6.234571 5.238008 3.167707 8.600275 -12.943916 0.000000 -0.000000 0.000000 3.475062 -1.610168 -4.180079 -0.517352 -1.592151 14.447763 2.263423 -6.395413 -10.299047 0.000000 -0.000000 0.000000 0.145793 -0.657730 9.905920 1.372524 -0.873266 -2.315208 -1.252054 -0.833306 -0.649860 3.355602 -15.673301 -3.702694 1.918656 -21.572817 5.226586 -27.723977 4.018916 3.864771 -52.866605 -4.575852 8.871583 5.434272 -30.966845 9.223039 -6.634694 -8.065199 -5.216900 25.135647 2.476436 -0.964201 61.381881 0.273498 11.471151 -14.290865 22.281539 -5.729914 5.180989 2.742139 -6.727794 
0.052365 0.252149 1.007805 88.235573 1.343901 87.935056 0.683721 2.684048 2.236090 -3.133368 -6.336085 5.216504 3.170311 8.616656 -12.978197 0.000000 -0.000000 0.000000 3.484515 -1.635376 -4.158449 -0.534561 -1.583447 14.454735 2.226263 -6.481008 -10.390052 0.000000 -0.000000 0.000000 0.216707 -0.592210 9.872524 1.335639 -0.813775 -2.307622 -1.271329 -0.827109 -0.576726 3.282723 -15.791822 -3.646859 1.898360 -21.735193 5.124674 -27.786656 4.156963 3.795234 -52.926110 -4.420449 8.711310 5.517433 -29.976685 8.983227 -6.704469 -7.967628 -5.106046 25.237332 2.418731 -0.963990 61.366331 0.211799 11.493001 -14.140966 21.826625 -5.537535 5.155633 2.673296 -6.570480 
0.053099 0.251924 1.007784 88.341886 1.350308 87.956473 0.689188 2.697321 2.257878 -3.131257 -6.347444 5.168496 3.180458 8.692018 -13.018610 0.000000 -0.000000 0.000000 3.529558 -1.699270 -4.120774 -0.566645 -1.571635 14.450967 2.139743 -6.553071 -10.385235 0.000000 -0.000000 0.000000 0.291121 -0.512749 9.832789 1.306530 -0.778695 -2.285602 -1.293389 -0.829272 -0.516436 3.267348 -15.800735 -3.651212 1.882208 -21.870751 5.178654 -27.782238 4.353161 3.671848 -52.937295 -4.278567 8.529193 5.555028 -28.885786 8.861169 -6.719891 -7.742409 -4.933340 25.259934 2.342082 -1.009269 61.392198 0.223434 11.572838 -13.881769 21.331512 -5.220779 5.080453 2.697509 -6.435033 
0.053804 0.251701 1.007639 88.468268 1.333634 88.013650 0.661391 2.687453 2.211652 -3.145419 -6.221583 5.098486 3.132111 8.806627 -12.913696 0.000000 -0.000000 0.000000 3.532795 -1.738221 -4.088971 -0.574915 -1.589556 14.359843 2.131575 -6.634098 -10.372488 0.000000 -0.000000 0.000000 0.360512 -0.470246 9.751230 1.285837 -0.768044 -2.252745 -1.347008 -0.806412 -0.486678 3.214418 -15.776065 -3.653242 1.812317 -21.985808 5.303838 -27.798165 4.486018 3.631685 -52.864212 -4.151206 8.373794 5.691951 -27.980901 8.626987 -6.797935 -7.619321 -4.773125 25.340598 2.344973 -1.071561 61.335590 0.226229 11.630856 -13.747262 20.940392 -5.132603 4.938907 2.747008 -6.409505 
0.054564 0.251594 1.007591 88.516594 1.266033 88.055339 0.575509 2.675521 2.223220 -3.116580 -6.319749 5.122487 3.232879 8.828226 -12.961598 0.000000 -0.000000 0.000000 3.469382 -1.787327 -4.052484 -0.592234 -1.571258 14.310840 2.105850 -6.638391 -10.364169 0.000000 -0.000000 0.000000 0.395488 -0.403370 9.729367 1.242918 -0.714751 -2.340502 -1.391824 -0.742124 -0.454323 3.152241 -15.883735 -3.483855 1.663891 -22.069892 5.315562 -27.859991 4.634448 3.568049 -52.665952 -4.016543 8.206014 5.698714 -27.242690 8.456526 -6.923327 -7.516658 -4.584196 25.356535 2.281956 -1.130891 61.353641 0.206678 11.630914 -13.742740 20.714402 -5.201561 4.941538 2.674372 -6.420498 
0.055452 0.251467 1.007351 88.573510 1.263855 88.030927 0.539718 2.623427 2.311751 -3.009762 -6.544494 5.227382 3.232877 8.750355 -12.965166 0.000000 -0.000000 0.000000 3.459210 -1.743652 -3.900615 -0.577657 -1.595579 14.196282 2.098529 -6.760575 -10.357378 0.000000 -0.000000 0.000000 0.460697 -0.401413 9.707778 1.212597 -0.661671 -2.332592 -1.372362 -0.727702 -0.408523 3.056734 -15.885598 -3.305576 1.578511 -22.018266 5.268072 -27.826895 4.772222 3.483853 -52.621852 -3.925485 8.040332 5.773671 -26.674152 8.262291 -6.951205 -7.391580 -4.578751 25.360000 2.280659 -1.158189 61.255455 0.362649 11.653444 -13.695798 20.594411 -5.237317 4.886295 2.702599 -6.311108 
0.056313 0.251355 1.007114 88.553436 1.257717 88.030424 0.519665 2.594254 2.352134 -2.984856 -6.518722 5.270470 3.204138 8.760194 -13.033373 0.000000 -0.000000 0.000000 3.455986 -1.757257 -3.818426 -0.567860 -1.559736 14.150507 2.098413 -6.765266 -10.386389 0.000000 -0.000000 0.000000 0.529525 -0.346081 9.642228 1.177382 -0.591319 -2.332579 -1.389315 -0.745830 -0.378373 3.036864 -15.905738 -3.259906 1.472049 -21.982415 5.353659 -27.854297 4.907530 3.427560 -52.553556 -3.820361 7.886521 5.996473 -26.320386 7.917435 -6.866434 -7.386375 -4.584698 25.425271 2.271461 -1.235497 61.067163 0.504641 11.657303 -13.603093 20.620676 -5.370798 4.717971 2.694481 -6.253683 
0.056684 0.251155 1.006945 88.360742 1.214345 88.138020 0.474480 2.570660 2.264137 -3.023910 -6.237825 5.273663 3.210977 8.797041 -13.036421 0.000000 -0.000000 0.000000 3.459735 -2.055751 -4.075228 -0.648720 -1.294760 14.349774 2.181377 -6.505376 -10.360535 0.000000 -0.000000 0.000000 0.531245 -0.111932 9.450775 1.206607 -0.554386 -2.294976 -1.411200 -0.733879 -0.383033 2.971596 -15.927851 -3.083174 1.449475 -21.952887 5.376278 -27.866255 5.027963 3.344139 -52.503311 -3.733628 7.802780 6.154766 -26.196744 7.631045 -6.767530 -7.262598 -4.664505 25.435112 2.202515 -1.323935 60.938344 0.642063 11.674963 -13.570757 20.878620 -5.489204 4.684323 2.585760 -6.335666 
